<svg height="511pt" viewBox="0 -26 511.9996 511" width="511pt" xmlns="http://www.w3.org/2000/svg"><path d="m150.125 443.445312c-61.027344 0-110.679688-49.648437-110.679688-110.675781v-150.128906c0-4.265625 3.460938-7.726563 7.726563-7.726563 4.269531 0 7.730469 3.460938 7.730469 7.726563v150.128906c0 52.503907 42.714844 95.222657 95.21875 95.222657 52.507812 0 95.222656-42.71875 95.222656-95.222657v-221.59375c0-61.027343 49.652344-110.675781 110.679688-110.675781 61.023437 0 110.675781 49.648438 110.675781 110.675781v224.347657c0 4.269531-3.460938 7.726562-7.726563 7.726562-4.269531 0-7.726562-3.457031-7.726562-7.726562v-224.347657c0-52.507812-42.71875-95.222656-95.222656-95.222656-52.507813 0-95.222657 42.71875-95.222657 95.222656v221.59375c0 61.027344-49.648437 110.675781-110.675781 110.675781zm0 0" fill="#f55"/><path d="m275.273438 125.707031h-38.992188v-19.496093c0-10.765626 8.726562-19.496094 19.496094-19.496094 10.765625 0 19.496094 8.730468 19.496094 19.496094zm0 0" fill="#d9efec"/><path d="m308.773438 326.003906h-111.402344c-10.5625 0-19.121094-8.5625-19.121094-19.125v-175.628906c0-10.5625 8.558594-19.125 19.121094-19.125h111.402344c10.5625 0 19.125 8.5625 19.125 19.125v175.628906c0 10.5625-8.5625 19.125-19.125 19.125zm0 0" fill="#f55"/><path d="m327.898438 131.246094v175.632812c0 10.566406-8.566407 19.128906-19.121094 19.128906h-33.375c10.558594 0 19.121094-8.5625 19.121094-19.128906v-175.632812c0-10.554688-8.5625-19.121094-19.121094-19.121094h33.375c10.554687 0 19.121094 8.566406 19.121094 19.121094zm0 0" fill="#f72b2b"/><path d="m178.25 163.339844h149.648438v121.703125h-149.648438zm0 0" fill="#d9efec"/><path d="m294.523438 163.339844h33.375v121.703125h-33.375zm0 0" fill="#c1dbd6"/><path d="m230.066406 194.828125h-2.640625v-2.640625c0-4.265625-3.460937-7.726562-7.726562-7.726562-4.269531 0-7.726563 3.460937-7.726563 7.726562v2.640625h-2.640625c-4.265625 0-7.726562 3.460937-7.726562 7.726563 0 4.269531 3.460937 7.726562 7.726562 7.726562h2.640625v2.640625c0 4.269531 3.457032 7.726563 7.726563 7.726563 4.265625 0 7.726562-3.457032 7.726562-7.726563v-2.640625h2.640625c4.265625 0 7.726563-3.457031 7.726563-7.726562 0-4.265626-3.457031-7.726563-7.726563-7.726563zm0 0" fill="#f72b2b"/><g fill="#38aaff"><path d="m272.605469 199.914062h-16.828125c-4.265625 0-7.726563-3.457031-7.726563-7.726562 0-4.265625 3.460938-7.726562 7.726563-7.726562h16.828125c4.269531 0 7.726562 3.460937 7.726562 7.726562 0 4.269531-3.457031 7.726562-7.726562 7.726562zm0 0"/><path d="m297.246094 219.75h-41.46875c-4.265625 0-7.726563-3.460938-7.726563-7.726562 0-4.269532 3.460938-7.730469 7.726563-7.730469h41.46875c4.269531 0 7.726562 3.460937 7.726562 7.730469 0 4.265624-3.460937 7.726562-7.726562 7.726562zm0 0"/><path d="m300.851562 246.390625h-91.519531c-4.265625 0-7.726562-3.457031-7.726562-7.726563 0-4.265624 3.460937-7.726562 7.726562-7.726562h91.519531c4.269532 0 7.726563 3.460938 7.726563 7.726562 0 4.269532-3.457031 7.726563-7.726563 7.726563zm0 0"/><path d="m300.851562 266.878906h-91.519531c-4.265625 0-7.726562-3.460937-7.726562-7.726562s3.460937-7.726563 7.726562-7.726563h91.519531c4.269532 0 7.726563 3.460938 7.726563 7.726563s-3.457031 7.726562-7.726563 7.726562zm0 0"/></g><path d="m46.648438 190.898438c-6.640626 0-12.023438-5.382813-12.023438-12.023438v-55.671875h24.046875v55.671875c0 6.640625-5.382813 12.023438-12.023437 12.023438zm0 0" fill="#628fb1"/><path d="m165.867188 63.855469c1.042968-25.703125-19.292969-47.695313-45.015626-47.367188-16.1875.203125-30.28125 9.058594-37.898437 22.148438-7.621094-13.089844-21.714844-21.945313-37.902344-22.148438-25.71875-.328125-46.058593 21.664063-45.0117185 47.367188 2.0664065 50.832031 58.1953125 95.378906 76.9062495 108.855469 3.589844 2.585937 8.425782 2.585937 12.011719 0 18.714844-13.476563 74.84375-58.023438 76.910157-108.855469zm0 0" fill="#d9efec"/><path d="m3.382812 83.277344c12.667969 42.441406 57.261719 77.691406 73.550782 89.425781 3.597656 2.59375 8.4375 2.59375 12.03125 0 16.292968-11.734375 60.886718-46.984375 73.554687-89.425781zm0 0" fill="#f55"/><path d="m135.066406 83.277344c-18.589844 40.09375-61.851562 71.496094-72.175781 78.59375 5.605469 4.613281 10.492187 8.277344 14.035156 10.832031 3.601563 2.59375 8.4375 2.59375 12.035157.003906 16.292968-11.734375 60.894531-46.988281 73.5625-89.429687zm0 0" fill="#f72b2b"/><path d="m458.972656 258.890625c6.640625 0 12.023438 5.382813 12.023438 12.023437v55.675782h-24.046875v-55.675782c0-6.640624 5.382812-12.023437 12.023437-12.023437zm0 0" fill="#628fb1"/><path d="m511.960938 349.175781c1.042968-25.699219-19.292969-47.695312-45.015626-47.367187-16.1875.203125-30.28125 9.058594-37.898437 22.148437-7.617187-13.089843-21.710937-21.945312-37.898437-22.148437-25.722657-.328125-46.058594 21.664062-45.015626 47.367187 2.066407 50.832031 58.195313 95.378907 76.90625 108.855469 3.589844 2.585938 8.425782 2.585938 12.015626 0 18.710937-13.476562 74.839843-58.023438 76.90625-108.855469zm0 0" fill="#f55"/><path d="m511.960938 349.160156c-2.054688 50.835938-58.195313 95.398438-76.910157 108.878906-3.59375 2.585938-8.433593 2.578126-12.027343-.011718-2.980469-2.144532-6.90625-5.078125-11.414063-8.695313 24.335937-19.554687 65.546875-59.148437 65.546875-103.027343 0-18.390626-11.160156-34.175782-27.074219-40.953126 5.542969-2.355468 11.660157-3.628906 18.085938-3.539062 25.246093.355469 44.8125 22.117188 43.792969 47.347656zm0 0" fill="#f72b2b"/></svg>