<svg height="496pt" viewBox="-24 0 496 496" width="496pt" xmlns="http://www.w3.org/2000/svg"><path d="m40 8h320v440h-320zm0 0" fill="#656665"/><path d="m328 488h-320v-448h256v64h64zm0 0" fill="#bab8b9"/><path d="m328 104-64-64v64zm0 0" fill="#999"/><path d="m136 200-40-48-40 48v-160h80zm0 0" fill="#ca5057"/><path d="m56 40h80v32h-80zm0 0" fill="#dc6068"/><path d="m328 200 1.617188 1.945312c24.320312 29.183594 60.351562 46.054688 98.335937 46.054688h12.046875v129.574219c0 28.714843-15.382812 55.21875-40.3125 69.457031l-71.6875 40.96875" fill="#5789d6"/><path d="m328 488-71.6875-40.96875c-24.929688-14.238281-40.3125-40.75-40.3125-69.457031v-129.574219h12.046875c37.984375 0 74.015625-16.871094 98.335937-46.054688l1.617188-1.945312" fill="#699ce6"/><path d="m328 312-15.710938-15.710938c-5.3125-5.3125-12.503906-8.289062-20-8.289062-15.625 0-28.289062 12.664062-28.289062 28.289062v.957032c0 6.929687 2.542969 13.617187 7.144531 18.792968l56.855469 63.960938" fill="#dc6068"/><path d="m328 400 56.855469-63.960938c4.601562-5.183593 7.144531-11.863281 7.144531-18.792968v-.957032c0-15.625-12.664062-28.289062-28.289062-28.289062-7.503907 0-14.695313 2.976562-20 8.289062l-15.710938 15.710938" fill="#ca5057"/><path d="m368 192h-16v-176h-304v24h-16v-32c0-4.425781 3.574219-8 8-8h320c4.425781 0 8 3.574219 8 8zm0 0"/><path d="m280 496h-272c-4.425781 0-8-3.574219-8-8v-448c0-4.425781 3.574219-8 8-8h256c4.425781 0 8 3.574219 8 8v56h56c4.425781 0 8 3.574219 8 8v72h-16v-64h-56c-4.425781 0-8-3.574219-8-8v-56h-240v432h264zm0 0"/><path d="m258.339844 45.65625 11.3125-11.3125 64.003906 64-11.316406 11.316406zm0 0"/><path d="m328 496c-1.367188 0-2.742188-.351562-3.96875-1.054688l-71.6875-40.96875c-27.351562-15.625-44.34375-44.90625-44.34375-76.410156v-129.566406c0-4.425781 3.574219-8 8-8h12.046875c35.722656 0 69.320313-15.734375 92.183594-43.175781l1.617187-1.9375c3.03125-3.65625 9.265625-3.65625 12.296875 0l1.617188 1.945312c22.871093 27.433594 56.46875 43.167969 92.191406 43.167969h12.046875c4.425781 0 8 3.574219 8 8v129.566406c0 31.503906-16.992188 60.785156-44.34375 76.410156l-71.6875 40.96875c-1.226562.703126-2.601562 1.054688-3.96875 1.054688zm-104-240v121.566406c0 25.777344 13.894531 49.730469 36.28125 62.511719l67.71875 38.714844 67.71875-38.703125c22.386719-12.792969 36.28125-36.746094 36.28125-62.523438v-121.566406h-4.046875c-38.175781 0-74.234375-15.863281-99.953125-43.769531-25.726562 27.90625-61.777344 43.769531-99.953125 43.769531zm0 0"/><path d="m32 384h160v16h-160zm0 0"/><path d="m32 416h160v16h-160zm0 0"/><path d="m32 224h160v16h-160zm0 0"/><path d="m32 256h160v16h-160zm0 0"/><path d="m32 448h160v16h-160zm0 0"/><path d="m136 208c-2.328125 0-4.59375-1.015625-6.152344-2.871094l-33.847656-40.632812-33.847656 40.625c-2.167969 2.582031-5.710938 3.535156-8.871094 2.398437-3.167969-1.144531-5.28125-4.152343-5.28125-7.519531v-160c0-4.425781 3.574219-8 8-8h80c4.425781 0 8 3.574219 8 8v160c0 3.367188-2.113281 6.375-5.273438 7.519531-.894531.320313-1.816406.480469-2.726562.480469zm-40-64c2.375 0 4.625 1.054688 6.152344 2.871094l25.847656 31.03125v-129.902344h-64v129.902344l25.847656-31.03125c1.527344-1.816406 3.777344-2.871094 6.152344-2.871094zm0 0"/><path d="m56 64h80v16h-80zm0 0"/><path d="m328 408c-2.28125 0-4.464844-.976562-5.976562-2.6875l-56.855469-63.960938c-5.921875-6.648437-9.167969-15.207031-9.167969-24.105468v-.964844c0-20.007812 16.273438-36.28125 36.28125-36.28125 9.695312 0 18.808594 3.777344 25.65625 10.625l10.0625 10.0625 10.0625-10.0625c6.847656-6.847656 15.960938-10.625 25.65625-10.625 20.007812 0 36.28125 16.273438 36.28125 36.28125v.964844c0 8.890625-3.246094 17.457031-9.160156 24.105468l-56.863282 63.960938c-1.511718 1.710938-3.695312 2.6875-5.976562 2.6875zm-35.71875-112c-11.175781 0-20.28125 9.105469-20.28125 20.28125v.964844c0 4.96875 1.824219 9.761718 5.128906 13.480468l50.871094 57.234376 50.878906-57.234376c3.296875-3.71875 5.121094-8.503906 5.121094-13.480468v-.964844c0-11.175781-9.105469-20.28125-20.28125-20.28125-5.421875 0-10.511719 2.113281-14.34375 5.9375l-15.71875 15.71875c-3.128906 3.128906-8.183594 3.128906-11.3125 0l-15.71875-15.71875c-3.824219-3.824219-8.921875-5.9375-14.34375-5.9375zm0 0"/><path d="m320 424h16v16h-16zm0 0"/></svg>