<svg height="511pt" viewBox="1 -43 511.999 511" width="511pt" xmlns="http://www.w3.org/2000/svg"><path d="m468.046875 121.71875c0-62.804688-50.914063-113.71875-113.722656-113.71875-41.984375 0-78.628907 22.765625-98.328125 56.613281-19.699219-33.847656-56.34375-56.613281-98.328125-56.613281-62.804688 0-113.722657 50.914062-113.722657 113.71875 0 159.140625 212.050782 296.179688 212.050782 296.179688s212.050781-137.039063 212.050781-296.179688zm0 0" fill="#f55"/><path d="m468.054688 121.726562c0 159.144532-212.070313 296.171876-212.070313 296.171876s-21.722656-14.035157-51.261719-38.339844c33.859375-23.265625 206.304688-148.796875 206.304688-292.316406 0-29.148438-10.953125-55.746094-28.988282-75.847657 49.417969 12.375 86.015626 57.0625 86.015626 110.332031zm0 0" fill="#f72b2b"/><path d="m254.585938 329.933594c-6.160157 0-11.460938-4.386719-12.601563-10.453125l-31.328125-166.40625-33.335938 79.214843c-1.941406 4.613282-6.386718 7.675782-11.386718 7.84375-5.011719.171876-9.648438-2.582031-11.894532-7.054687l-8.910156-17.710937h-124.800781c-7.085937 0-12.828125-5.746094-12.828125-12.828126 0-7.085937 5.742188-12.828124 12.828125-12.828124h132.707031c4.820313 0 9.234375 2.707031 11.425782 6.996093l39.085937-92.890625c2.195313-5.21875 7.558594-8.378906 13.183594-7.777344 5.628906.597657 10.199219 4.816407 11.246093 10.378907l25.832032 137.222656 10.6875-64.207031c1.027344-6.183594 6.382812-10.71875 12.652344-10.71875h41.867187c4.335937 0 8.378906 2.191406 10.746094 5.824218l19.660156 30.171876 8.476563-10.316407c2.4375-2.964843 6.074218-4.683593 9.910156-4.683593h123.863281c7.085937 0 12.828125 5.742187 12.828125 12.828124 0 7.082032-5.742188 12.828126-12.828125 12.828126h-117.800781l-15.734375 19.144531c-2.59375 3.15625-6.539063 4.886719-10.617188 4.664062-4.082031-.226562-7.808593-2.382812-10.039062-5.804687l-25.417969-39.003906h-24.042969l-20.777343 124.84375c-1.019532 6.136718-6.296876 10.65625-12.515626 10.722656-.046874 0-.09375 0-.140624 0zm0 0" fill="#60daff"/><path d="m491.671875 182.210938h-25.539063c6.238282-20.496094 9.414063-40.8125 9.414063-60.492188 0-27.539062-9.496094-54.503906-26.734375-75.929688-2.597656-3.226562-7.316406-3.738281-10.542969-1.140624-3.230469 2.59375-3.742187 7.316406-1.144531 10.542968 15.320312 19.042969 23.421875 42.046875 23.421875 66.527344 0 19.582031-3.421875 39.921875-10.144531 60.492188h-23.757813c-4.144531 0-7.5 3.359374-7.5 7.5 0 4.140624 3.355469 7.5 7.5 7.5h65.027344c2.9375 0 5.328125 2.390624 5.328125 5.328124 0 2.933594-2.390625 5.328126-5.328125 5.328126h-117.800781c-2.242188 0-4.371094 1.003906-5.792969 2.734374l-15.734375 19.148438c-1.074219 1.304688-2.726562 2.035156-4.410156 1.9375-1.691406-.09375-3.25-.992188-4.171875-2.410156l-25.414063-39.003906c-1.382812-2.125-3.75-3.40625-6.285156-3.40625h-24.042969c-3.667969 0-6.796875 2.652343-7.398437 6.269531l-20.777344 124.847656c-.421875 2.550781-2.609375 4.421875-5.117188 4.449219h-.136718c-2.5625 0-4.761719-1.824219-5.234375-4.339844l-31.328125-166.410156c-.613282-3.25-3.285156-5.71875-6.578125-6.066406-3.28125-.355469-6.421875 1.496093-7.707031 4.546874l-33.332032 79.21875c-.804687 1.90625-2.660156 3.1875-4.730468 3.257813-2.0625.0625-4.007813-1.082031-4.941407-2.933594l-8.90625-17.710937c-1.273437-2.53125-3.867187-4.128906-6.699219-4.128906h-124.804687c-2.9375 0-5.328125-2.390626-5.328125-5.328126 0-2.941406 2.390625-5.328124 5.328125-5.328124h132.707031c2.011719 0 3.832032 1.113281 4.746094 2.90625 1.324219 2.597656 4.039062 4.203124 6.957031 4.085937 2.914063-.109375 5.503907-1.898437 6.636719-4.585937l39.085938-92.890626c.90625-2.148437 3.164062-3.480468 5.476562-3.230468 2.355469.25 4.230469 1.980468 4.671875 4.3125l25.832031 137.222656c.667969 3.546875 3.769532 6.113281 7.371094 6.109375h.078125c3.636719-.039063 6.722656-2.679687 7.320313-6.265625l10.683593-64.210938c.429688-2.578124 2.640625-4.449218 5.257813-4.449218h41.863281c1.808594 0 3.476563.902344 4.460937 2.417968l19.660157 30.171876c1.304687 2 3.484375 3.261718 5.871093 3.394531 2.367188.128906 4.691407-.878907 6.210938-2.726563l8.472656-10.316406c1.019532-1.234375 2.519532-1.945312 4.117188-1.945312h24.660156c4.140625 0 7.5-3.359376 7.5-7.5 0-4.140626-3.359375-7.5-7.5-7.5h-24.660156c-6.105469 0-11.828125 2.707031-15.703125 7.421874l-1.984375 2.414063-14.074219-21.601563c-3.765625-5.78125-10.132813-9.230468-17.03125-9.230468h-41.867187c-9.976563 0-18.410157 7.144531-20.050782 16.988281l-3.742187 22.488281-18.007813-95.660156c-1.671875-8.882812-8.835937-15.492188-17.824218-16.449219-8.847657-.945312-17.4375 4.125-20.886719 12.328125l-35.007813 83.191406c-2.640625-1.226562-5.558594-1.890624-8.59375-1.890624h-91.445312c-6.726563-20.570313-10.144532-40.910157-10.144532-60.492188 0-58.566406 47.652344-106.21875 106.222657-106.21875 37.664062 0 72.859375 20.265625 91.847656 52.886719 1.34375 2.308593 3.8125 3.730469 6.480469 3.730469 2.667968 0 5.140625-1.421876 6.480468-3.730469 18.988282-32.621094 54.179688-52.886719 91.847657-52.886719 21.226562 0 41.714843 6.238281 59.246093 18.046875 3.4375 2.3125 8.097657 1.402344 10.410157-2.035156 2.3125-3.433594 1.402343-8.09375-2.03125-10.410157-20.019531-13.476562-43.402344-20.601562-67.625-20.601562-39.007813 0-75.683594 19.035156-98.328125 50.371094-22.644532-31.335938-59.324219-50.371094-98.328125-50.371094-66.84375 0-121.222657 54.378906-121.222657 121.21875 0 19.679688 3.171876 39.996094 9.414063 60.492188h-25.53125c-11.210937 0-20.328125 9.117187-20.328125 20.328124 0 11.207032 9.117188 20.328126 20.328125 20.328126h41.800781c16.128906 32.695312 39.832032 66.089843 70.523438 99.292968 1.476562 1.597656 3.488281 2.410156 5.507812 2.410156 1.820313 0 3.648438-.660156 5.089844-1.996093 3.042969-2.8125 3.230469-7.554688.417969-10.597657-27.625-29.882812-49.34375-59.816406-64.707031-89.113281h61.546874l6.832032 13.585938c3.550781 7.0625 10.9375 11.453125 18.847656 11.179687 7.898438-.265625 14.980469-5.144531 18.046875-12.429687l23.664063-56.238281 26.714843 141.90625c1.808594 9.601562 10.210938 16.566406 19.976563 16.566406h.109375.105469c9.875-.105469 18.214843-7.25 19.835937-16.988282l19.734375-118.578124h13.625l23.195312 35.597656c3.519532 5.40625 9.46875 8.84375 15.914063 9.199218 6.460937.359376 12.730469-2.410156 16.820313-7.390624l13.484374-16.410157h55.621094c-28.574218 54.421875-74.378906 101.5625-108.613281 132.109375-31.191406 27.828125-58.425781 47.078125-68.425781 53.898438-12.097656-8.25-49.429688-34.707032-88.722656-72.757813-2.976563-2.878906-7.722657-2.804687-10.601563.171875-2.882813 2.976563-2.808594 7.722656.167969 10.605469 48.660156 47.121094 93.214844 76.09375 95.085937 77.304687 1.238281.800782 2.652344 1.199219 4.070313 1.199219 1.414062 0 2.832031-.398437 4.070312-1.199219 1.375-.890624 34.089844-22.144531 74.140625-57.851562 36.683594-32.707031 86.324219-84.019531 115.65625-143.480469h41.808594c11.207031 0 20.328125-9.117187 20.328125-20.328125 0-11.207031-9.117188-20.324218-20.328125-20.324218zm0 0"/></svg>